#!OML:ASF \\sashay\E\Suitcase\Project 1\Capture day 1\Session 1\Male1.ASF
:FULLY-SPECIFIED
:DEGREES
325
root -0.790859 17.5372 -35.6302 4.79623 -4.89165 -3.45612
lowerback 16.3737 0.82278 6.97066
upperback 4.10244 2.62565 7.20716
thorax -4.82111 1.22687 3.21055
lowerneck -15.1254 -1.95921 -4.68637
upperneck 1.0354 -1.48065 -5.22993
head 2.99464 -1.00767 -1.00703
rclavicle 3.18055e-015 -1.59028e-015
rhumerus -26.7142 -25.4613 -61.7909
rradius 12.6703
rwrist 6.57354
rhand -15.8713 22.779
rfingers 7.12502
rthumb 10.3243 -6.94756
lclavicle 3.18055e-015 -1.59028e-015
lhumerus -38.5547 -0.459427 90.3406
lradius 44.7412
lwrist 5.08425
lhand -4.10068 39.403
lfingers 7.12502
lthumb 21.6573 68.2117
rfemur -4.79946 -0.347632 27.1184
rtibia 19.5008
rfoot -18.1486 -0.694536
rtoes 15.9612
lfemur -31.2231 -0.246507 -9.94036
ltibia 54.1733
lfoot -10.6948 -1.45261
ltoes 1.85277
326
root -0.792648 17.5316 -35.5696 4.70908 -4.86672 -3.59746
lowerback 16.177 0.878287 7.02952
upperback 3.95749 2.69273 7.064
thorax -4.86083 1.25757 3.0114
lowerneck -15.3047 -1.89634 -4.63379
upperneck 1.75035 -1.34804 -5.23888
head 3.28162 -0.967478 -1.02246
rclavicle 2.8625e-014 7.31528e-014
rhumerus -27.0537 -25.4012 -61.8999
rradius 12.2514
rwrist 6.36781
rhand -15.8572 23.1079
rfingers 7.12502
rthumb 10.3379 -6.61804
lclavicle 2.8625e-014 7.31528e-014
lhumerus -39.0577 -0.446539 90.235
lradius 44.6781
lwrist 5.07172
lhand -4.2387 39.8494
lfingers 7.12502
lthumb 21.5247 68.6733
rfemur -4.30917 -0.357564 27.2486
rtibia 19.1913
rfoot -18.2102 -0.697417
rtoes 14.9902
lfemur -31.2817 -0.190442 -9.95693
ltibia 53.519
lfoot -10.8255 -1.48652
ltoes 1.98534
327
root -0.801857 17.5196 -35.5179 4.83737 -4.72872 -3.74389
lowerback 15.9815 0.946359 6.83556
upperback 3.80156 2.7505 7.13985
thorax -4.93649 1.2867 3.19236
lowerneck -15.733 -1.83893 -4.83904
upperneck 1.78009 -1.18986 -5.3834
head 3.37636 -0.905193 -1.02923
rclavicle -1.90833e-014 -1.43125e-014
rhumerus -27.3448 -27.9912 -60.5522
rradius 11.1663
rwrist 9.36027
rhand -15.7242 24.3366
rfingers 7.12502
rthumb 10.4662 -5.38285
lclavicle -1.90833e-014 -1.43125e-014
lhumerus -39.1174 -0.162897 90.3679
lradius 44.3793
lwrist 5.01123
lhand -4.23696 39.8564
lfingers 7.12502
lthumb 21.5264 68.6802
rfemur -4.03873 -0.457154 27.4285
rtibia 18.8184
rfoot -18.2043 -0.784626
rtoes 15.1898
lfemur -31.6799 -0.0997712 -9.96959
ltibia 52.8276
lfoot -11.3901 -1.64696
ltoes 2.8715
328
root -0.807435 17.5186 -35.4592 4.85756 -4.2722 -3.82405
lowerback 15.4706 0.878692 6.75602
upperback 3.44052 2.62765 7.0837
thorax -5.04587 1.2251 3.20635
lowerneck -14.35 -1.87087 -4.63563
upperneck 1.35676 -1.38639 -5.58929
head 2.95921 -0.974077 -1.12163
rclavicle 3.02153e-014 1.28812e-013
rhumerus -28.1167 -27.9527 -60.3526
rradius 10.8885
rwrist 9.19048
rhand -15.9775 23.5026
rfingers 7.12502
rthumb 10.2219 -6.229
lclavicle 3.02153e-014 1.28812e-013
lhumerus -39.6712 0.170322 90.2122
lradius 43.8499
lwrist 4.83186
lhand -4.30155 40.1657
lfingers 7.12502
lthumb 21.4644 68.9966
rfemur -3.69098 -0.600219 27.589
rtibia 18.5516
rfoot -18.0915 -1.12354
rtoes 15.2377
lfemur -32.0111 -0.314566 -10.0158
ltibia 52.0312
lfoot -11.6341 -1.35223
ltoes 3.94376
329
root -0.808145 17.5201 -35.3916 4.83582 -4.35902 -3.95316
lowerback 15.2398 1.03195 6.91382
upperback 3.40686 2.81576 6.83574
thorax -4.93648 1.31616 2.81728
lowerneck -14.8175 -1.76357 -4.64095
upperneck 1.80297 -1.19053 -5.37801
head 3.20718 -0.889111 -1.04951
rclavicle -3.26007e-014 -8.90555e-014
rhumerus -28.529 -29.3608 -60.0972
rradius 10.4924
rwrist 10.4538
rhand -16.4032 23.6051
rfingers 7.12502
rthumb 9.81116 -6.14631
lclavicle -3.26007e-014 -8.90555e-014
lhumerus -39.705 -0.173113 90.0321
lradius 43.5028
lwrist 4.75181
lhand -4.29655 39.9356
lfingers 7.12502
lthumb 21.4692 68.7659
rfemur -3.30122 -0.57685 27.7084
rtibia 18.3462
rfoot -18.3302 -1.05716
rtoes 15.2665
lfemur -32.1219 -0.106296 -10.1152
ltibia 51.1838
lfoot -11.7147 -1.31884
ltoes 4.5307
330
root -0.812664 17.499 -35.3441 4.88259 -4.01491 -4.04259
lowerback 15.2725 0.910449 6.87329
upperback 3.192 2.67503 6.79237
thorax -5.1841 1.24147 2.82002
lowerneck -15.2361 -1.74151 -4.75025
upperneck 1.91717 -1.10563 -5.33725
head 3.32932 -0.85638 -1.01769
rclavicle -7.95139e-016 -4.29375e-014
rhumerus -28.443 -29.3257 -60.3164
rradius 9.92983
rwrist 10.4297
rhand -16.7446 23.943
rfingers 7.12502
rthumb 9.4818 -5.82371
lclavicle -7.95139e-016 -4.29375e-014
lhumerus -39.8527 0.306076 89.8691
lradius 42.9343
lwrist 4.42741
lhand -4.16705 38.9576
lfingers 7.12502
lthumb 21.5935 67.7736
rfemur -3.03274 -0.565796 27.8865
rtibia 18.0542
rfoot -18.3937 -1.53848
rtoes 14.4969
lfemur -32.3742 -0.292187 -10.1286
ltibia 50.2831
lfoot -11.8879 -0.965821
ltoes 4.16213
331
root -0.825935 17.4904 -35.2907 5.01913 -3.60091 -4.09828
lowerback 14.9632 0.818077 6.74735
upperback 3.09007 2.50672 6.72737
thorax -5.12615 1.16226 2.85633
lowerneck -15.8533 -1.71578 -4.53044
upperneck 2.1475 -1.02692 -5.7315
head 3.52993 -0.850982 -1.19614
rclavicle -7.15625e-015 1.27222e-014
rhumerus -28.52 -29.4077 -60.4803
rradius 9.70363
rwrist 10.5377
rhand -16.9246 24.2029
rfingers 7.12502
rthumb 9.3081 -5.57163
lclavicle -7.15625e-015 1.27222e-014
lhumerus -39.8091 0.648798 89.7018
lradius 42.5782
lwrist 4.11233
lhand -4.08141 40.1172
lfingers 7.12502
lthumb 21.6758 68.9238
rfemur -2.80681 -0.460074 28.0708
rtibia 17.8344
rfoot -18.5524 -1.96
rtoes 14.756
lfemur -32.7614 -0.233493 -10.2241
ltibia 49.2792
lfoot -12.1647 -0.927976
ltoes 2.62258
